<?xml version="1.0" standalone="no"?>
<!DOCTYPE svg PUBLIC "-//W3C//DTD SVG 20010904//EN"
 "http://www.w3.org/TR/2001/REC-SVG-20010904/DTD/svg10.dtd">
<svg version="1.0" xmlns="http://www.w3.org/2000/svg"
 width="170.000000pt" height="176.000000pt" viewBox="0 0 170.000000 176.000000"
 preserveAspectRatio="xMidYMid meet">
<metadata>
Created by potrace 1.16, written by Peter Selinger 2001-2019
</metadata>
<g transform="translate(0.000000,176.000000) scale(0.100000,-0.100000)"
fill="#000000" stroke="none">
<path d="M243 1505 c69 -24 66 -7 67 -452 l0 -401 -31 -26 c-17 -14 -40 -26
-52 -27 -12 -1 3 -7 33 -13 91 -20 127 -35 310 -121 188 -90 239 -109 340
-131 129 -27 246 -11 369 51 71 35 105 64 60 50 -135 -43 -262 -47 -420 -11
-145 33 -477 144 -500 167 -18 18 -19 39 -19 442 l0 424 24 22 c13 12 36 26
52 31 19 5 -21 8 -121 9 -138 0 -147 -1 -112 -14z"/>
</g>
</svg>
