<?xml version="1.0" standalone="no"?>
<!DOCTYPE svg PUBLIC "-//W3C//DTD SVG 20010904//EN"
 "http://www.w3.org/TR/2001/REC-SVG-20010904/DTD/svg10.dtd">
<svg version="1.0" xmlns="http://www.w3.org/2000/svg"
 width="200.000000pt" height="201.000000pt" viewBox="0 0 200.000000 201.000000"
 preserveAspectRatio="xMidYMid meet">
<metadata>
Created by potrace 1.16, written by Peter Selinger 2001-2019
</metadata>
<g transform="translate(0.000000,201.000000) scale(0.100000,-0.100000)"
fill="#000000" stroke="none">
<path d="M0 1005 l0 -1005 1000 0 1000 0 0 1005 0 1005 -1000 0 -1000 0 0
-1005z m956 955 c43 -11 122 -41 174 -67 78 -39 111 -63 181 -133 73 -73 92
-100 136 -190 61 -124 83 -215 83 -342 -1 -217 -73 -390 -227 -545 -68 -68
-98 -90 -185 -132 -227 -112 -456 -110 -688 6 -78 39 -111 63 -181 133 -73 73
-92 100 -136 190 -61 124 -83 215 -83 342 1 217 73 390 227 545 68 68 98 90
185 132 57 28 132 58 168 65 100 21 252 20 346 -4z m524 -1296 c41 -27 440
-427 456 -456 24 -46 18 -86 -20 -124 -37 -37 -67 -42 -119 -20 -39 17 -462
442 -472 474 -28 92 77 177 155 126z"/>
<path d="M710 1800 c-228 -29 -420 -197 -485 -424 -22 -75 -22 -219 0 -300 41
-155 159 -302 296 -368 94 -46 161 -61 265 -60 253 1 476 174 549 426 22 75
22 219 0 300 -74 277 -345 462 -625 426z"/>
</g>
</svg>
